<?xml version="1.0" encoding="UTF-8"?>
<svg id="_レイヤー_2" data-name="レイヤー_2" xmlns="http://www.w3.org/2000/svg" viewBox="0 0 375 23">
  <defs>
    <style>
      .cls-1 {
        fill: #1919ff;
      }
    </style>
  </defs>
  <g id="_レイヤー_1-2" data-name="レイヤー_1">
    <g>
      <path class="cls-1" d="M337.5,0c0,12.7-16.79,23-37.5,23h75c-20.71,0-37.5-10.3-37.5-23Z"/>
      <path class="cls-1" d="M37.5,0c0,12.7-16.79,23-37.5,23h75c-20.71,0-37.5-10.3-37.5-23Z"/>
      <path class="cls-1" d="M112.5,0c0,12.7-16.79,23-37.5,23h75c-20.71,0-37.5-10.3-37.5-23Z"/>
      <path class="cls-1" d="M187.5,0c0,12.7-16.79,23-37.5,23h75c-20.71,0-37.5-10.3-37.5-23Z"/>
      <path class="cls-1" d="M262.5,0c0,12.7-16.79,23-37.5,23h75c-20.71,0-37.5-10.3-37.5-23Z"/>
    </g>
  </g>
</svg>