<?xml version="1.0" encoding="UTF-8"?>
<svg id="_レイヤー_2" data-name="レイヤー_2" xmlns="http://www.w3.org/2000/svg" viewBox="0 0 136.14 100.11">
  <defs>
    <style>
      .cls-1 {
        fill: #1919ff;
      }
    </style>
  </defs>
  <g id="_レイヤー_1-2" data-name="レイヤー_1">
    <g>
      <circle class="cls-1" cx="4.92" cy="56.71" r="4.92"/>
      <circle class="cls-1" cx="29.3" cy="38.02" r="4.92"/>
      <circle class="cls-1" cx="62.27" cy="26.33" r="3.59"/>
      <circle class="cls-1" cx="53.49" cy="2.46" r="2.46"/>
      <circle class="cls-1" cx="25.73" cy="84.6" r="2.46"/>
      <circle class="cls-1" cx="20.67" cy="7.76" r="3.71"/>
      <path class="cls-1" d="M41.69,69.39c1.51,2.37,9.3,10.91,6.42,22.21-.91,3.58-2.46,6.42-3.9,8.51h17.91c.35-1.91,2.13-12.75-5.06-22.28-4.66-6.18-12.78-7.56-15.36-8.44Z"/>
      <path class="cls-1" d="M57.18,46.66c2.62,4.12,16.19,18.98,11.16,38.64-1.59,6.23-4.28,11.17-6.79,14.81h31.16c.6-3.32,3.71-22.19-8.8-38.77-8.12-10.75-22.23-13.15-26.73-14.68Z"/>
      <path class="cls-1" d="M81.78,20.1c3.93,6.17,24.23,28.41,16.71,57.84-2.38,9.32-6.42,16.73-10.17,22.17h46.65c.9-4.97,5.56-33.22-13.18-58.04-12.15-16.09-33.28-19.68-40.01-21.97Z"/>
    </g>
  </g>
</svg>